<?xml version="1.0" encoding="UTF-8"?>
<svg version="1.1" xmlns="http://www.w3.org/2000/svg" width="2480" height="3508">
<path d="M0 0 C0.12821943 93.77600305 0.00317857 187.54909944 -0.4375 281.32421875 C-0.44297317 282.4907101 -0.44844633 283.65720146 -0.45408535 284.85904104 C-0.59358302 314.55275677 -0.74072739 344.24643284 -0.89076424 373.94009697 C-0.9775842 391.13738302 -1.06222817 408.33467888 -1.14550781 425.53198242 C-1.1514818 426.76549081 -1.15745579 427.9989992 -1.16361082 429.26988664 C-1.1936074 435.46579051 -1.22356978 441.66169454 -1.25351524 447.85759866 C-1.4970544 498.23842571 -1.74639268 548.61922269 -2 599 C-5.33102339 600.11034113 -6.51753446 599.88485039 -9.88476562 599.17749023 C-10.90492264 598.96724213 -11.92507965 598.75699402 -12.97615051 598.54037476 C-14.67404976 598.17814316 -14.67404976 598.17814316 -16.40625 597.80859375 C-18.27404578 597.4203951 -20.14184192 597.03219815 -22.00964832 596.6440506 C-24.06201636 596.21597745 -26.11354338 595.78406155 -28.16488647 595.35110474 C-32.59566739 594.41616081 -37.02869234 593.49218495 -41.4621582 592.57006836 C-46.40185313 591.54225906 -51.34142688 590.51389006 -56.28034973 589.4823761 C-70.43538539 586.52690096 -84.59731036 583.60551054 -98.76171875 580.6953125 C-99.87262941 580.46706409 -100.98354008 580.23881569 -102.1281147 580.00365067 C-107.8306102 578.83215358 -113.53319085 577.66107164 -119.23580933 576.49017334 C-126.23304199 575.05334093 -133.22996334 573.61499668 -140.22680664 572.17626953 C-141.37817328 571.939522 -142.52953993 571.70277447 -143.71579647 571.45885277 C-146.02461795 570.98410249 -148.333439 570.50935007 -150.6422596 570.03459549 C-166.28443459 566.8183068 -181.92691902 563.60352749 -197.5700531 560.39190674 C-199.844607 559.92490709 -202.11914461 559.45782823 -204.39367676 558.99072266 C-205.87182577 558.68717253 -207.34997518 558.38362433 -208.828125 558.08007812 C-209.54732872 557.9323848 -210.26653244 557.78469147 -211.00753021 557.63252258 C-215.2579679 556.75975751 -219.50855937 555.88774586 -223.75925446 555.01623535 C-240.67020348 551.54849037 -257.57484272 548.05144683 -274.47498894 544.53141212 C-280.88326751 543.19732923 -287.29218295 541.86630828 -293.70108891 540.53524303 C-299.95949616 539.23498786 -306.21675889 537.92939184 -312.47323036 536.61985588 C-316.35145089 535.80938646 -320.23068513 535.00385503 -324.1102066 534.19963837 C-325.9234403 533.82267229 -327.73624116 533.44361745 -329.54857635 533.06235504 C-332.04193774 532.53810212 -334.53672311 532.02123519 -337.03198242 531.50610352 C-337.75618094 531.35196645 -338.48037947 531.19782938 -339.2265234 531.03902149 C-343.20715609 530.22630671 -346.93776402 529.69923592 -351 530 C-353.13508529 531.55157442 -353.13508529 531.55157442 -354.75 533.75 C-355.32234375 534.44609375 -355.8946875 535.1421875 -356.484375 535.859375 C-360.80221553 541.95776833 -360.84453645 547.64908576 -360 555 C-357.02760682 563.41359227 -350.79277284 568.75057959 -343.453125 573.48046875 C-342.80611633 573.90466599 -342.15910767 574.32886322 -341.49249268 574.76591492 C-340.07871696 575.69224947 -338.66326231 576.61602555 -337.24633789 577.53753662 C-334.13037748 579.56616197 -331.02582117 581.61196425 -327.92024231 583.65643311 C-325.35432547 585.34524026 -322.78703584 587.03194391 -320.21948242 588.71826172 C-301.8791719 600.76818477 -283.62185869 612.93202282 -265.44662476 625.22949219 C-252.73124691 633.83165807 -239.96416742 642.33256579 -227.06689453 650.66015625 C-222.34367842 653.72193395 -217.67429323 656.8642468 -213 660 C-210.56346989 661.62645568 -208.12543074 663.25064477 -205.6875 664.875 C-204.41013116 665.72652486 -203.13278751 666.57808752 -201.85546875 667.4296875 C-201.21786621 667.85475586 -200.58026367 668.27982422 -199.92333984 668.71777344 C-198.02832031 669.98111979 -196.13330078 671.24446615 -194.23828125 672.5078125 C-193.62073975 672.91942627 -193.00319824 673.33104004 -192.36694336 673.75512695 C-191.12396688 674.58394049 -189.88129013 675.41320372 -188.63891602 676.24291992 C-185.44591504 678.37451238 -182.24752507 680.497208 -179.0390625 682.60546875 C-164.82074604 691.96870737 -164.82074604 691.96870737 -159 697 C-157.72046865 698.03637164 -157.72046865 698.03637164 -156.41508818 699.09368008 C-153.347107 702.7856922 -153.32256555 705.58099396 -153.42890167 710.16908741 C-153.42782592 710.98710094 -153.42675016 711.80511446 -153.4256418 712.64791628 C-153.42803696 715.38310027 -153.46613381 718.11661176 -153.50402832 720.85151672 C-153.51276267 722.80501772 -153.51923807 724.75852994 -153.52361584 726.71204555 C-153.54156118 732.01619283 -153.59004226 737.31968053 -153.64351594 742.6235721 C-153.69458645 748.24190012 -153.71667605 753.86033703 -153.7410965 759.4788332 C-153.78443845 768.78172321 -153.84253251 778.08440762 -153.91030884 787.38714981 C-153.99945109 799.83675095 -154.04095037 812.28604253 -154.05834961 824.7359314 C-154.0597479 825.67994318 -154.06114618 826.62395496 -154.06258684 827.59657317 C-154.06818212 831.38891818 -154.07364473 835.1812633 -154.07871488 838.97360906 C-154.09337053 849.5701758 -154.12267892 860.16669617 -154.15246582 870.76322937 C-154.15790516 872.72526836 -154.16333583 874.68730737 -154.16875792 876.64934641 C-154.17698851 879.62319388 -154.18523649 882.59704129 -154.19353858 885.57088856 C-154.2226153 895.99448629 -154.25006912 906.41808818 -154.27750319 916.84169034 C-154.32639809 935.40479832 -154.37642454 953.96790306 -154.42724609 972.53100586 C-154.47638168 990.47924638 -154.5249323 1008.42748835 -154.57275391 1026.37573242 C-154.5757409 1027.4967291 -154.5787279 1028.61772577 -154.58180541 1029.77269205 C-154.59679854 1035.40078258 -154.61178078 1041.02887313 -154.62675762 1046.65696371 C-154.74948584 1092.77131374 -154.87408504 1138.88565857 -155 1185 C-159.73709592 1184.37595916 -163.76183562 1183.51167909 -168.1953125 1181.71484375 C-169.32324219 1181.26689453 -170.45117188 1180.81894531 -171.61328125 1180.35742188 C-173.96249939 1179.40754335 -176.31145612 1178.45701805 -178.66015625 1177.50585938 C-179.78550781 1177.05919922 -180.91085937 1176.61253906 -182.0703125 1176.15234375 C-183.08883301 1175.73976318 -184.10735352 1175.32718262 -185.15673828 1174.90209961 C-187.9603016 1174.01259536 -190.0829282 1173.81571812 -193 1174 C-193.66 1172.68 -194.32 1171.36 -195 1170 C-193.68 1170.33 -192.36 1170.66 -191 1171 C-201.29633886 1116.37412169 -221.72653941 1066.42351025 -253.04296875 1020.37890625 C-256.66493824 1015.04609566 -260.18303818 1009.64492503 -263.71127319 1004.24990845 C-264.94788389 1002.35912297 -266.18537562 1000.46891684 -267.4230957 998.57885742 C-271.12717742 992.92187546 -274.82867446 987.26321322 -278.52615356 981.60191345 C-280.45393512 978.65062111 -282.38296612 975.70014693 -284.3125 972.75 C-284.69573425 972.16390961 -285.07896851 971.57781921 -285.47381592 970.97396851 C-290.19310945 963.76040962 -294.94424908 956.56908322 -299.734375 949.40234375 C-300.22016525 948.67530243 -300.70595551 947.94826111 -301.20646667 947.19918823 C-303.55540557 943.68519147 -305.90755585 940.17340753 -308.26489258 936.66503906 C-313.17039084 929.34836659 -317.95467918 921.97230285 -322.58570862 914.47831726 C-325.9164476 909.09132972 -329.41273983 903.82835271 -332.94921875 898.57421875 C-336.52522047 893.23407249 -340.03136613 887.8481941 -343.54620361 882.4677124 C-349.25032418 873.73612471 -354.97324546 865.01843428 -360.76953125 856.34765625 C-361.25310089 855.62406921 -361.73667053 854.90048218 -362.2348938 854.15496826 C-364.57372441 850.65691924 -366.91590105 847.1611679 -369.26269531 843.66845703 C-374.16656671 836.35401077 -378.94960218 828.98029543 -383.58021545 821.48930359 C-386.92451573 816.08105608 -390.41558489 810.78137765 -393.96875 805.5078125 C-397.98808037 799.5319975 -401.99844704 793.55023119 -406 787.5625 C-406.39427185 786.97261292 -406.7885437 786.38272583 -407.19476318 785.77496338 C-412.86764926 777.27977493 -418.44431264 768.73940105 -423.70988464 759.98362732 C-425.04183677 757.87884111 -425.04183677 757.87884111 -426.89228821 755.53797913 C-432.79841394 747.57005582 -434.51798547 740.75008174 -435.44140625 731.0234375 C-435.60983662 729.51613615 -435.7812877 728.00916992 -435.95542908 726.5025177 C-436.32908547 723.2146561 -436.68194885 719.92544581 -437.01904297 716.63363647 C-437.57369654 711.22114944 -438.1746071 705.81434336 -438.78125 700.4074707 C-439.57458113 693.30845878 -440.35595145 686.2082876 -441.12519646 679.10662556 C-442.88004882 662.9227953 -444.74150736 646.75175877 -446.62109375 630.58203125 C-446.78000456 629.2141167 -446.93890193 627.84620059 -447.09778595 626.47828293 C-447.74173106 620.93454662 -448.38582536 615.3908277 -449.03038025 609.84716225 C-450.75079327 595.04670055 -452.4541263 580.2442813 -454.15562153 565.44163465 C-454.47307084 562.68003977 -454.79062854 559.91845735 -455.10818291 557.15687454 C-455.93528838 549.96394848 -456.76206997 542.77098521 -457.58875275 535.57801056 C-458.21052387 530.16836066 -458.83255446 524.75874061 -459.45458984 519.34912109 C-461.08653854 505.15594015 -462.71825275 490.96273246 -464.34790039 476.76928711 C-466.61571805 457.0198785 -468.89099252 437.2713417 -471.171875 417.5234375 C-471.44611422 415.14871253 -471.72035027 412.77398718 -471.99458313 410.39926147 C-473.60596308 396.44609567 -473.60596308 396.44609567 -475.21884155 382.49310303 C-476.51875092 371.25256871 -477.81686642 360.01183686 -479.10701847 348.77017784 C-479.66014618 343.95125257 -480.21628161 339.13269861 -480.77664471 334.31460953 C-481.13724235 331.20494264 -481.4921378 328.09462604 -481.84765625 324.984375 C-481.9695079 323.94790833 -482.09135956 322.91144165 -482.21690369 321.84356689 C-482.32329666 320.90228943 -482.42968964 319.96101196 -482.53930664 318.99121094 C-482.62958633 318.20905212 -482.71986603 317.42689331 -482.81288147 316.62103271 C-483.06616368 313.07322291 -483.02776812 309.55673307 -483 306 C-481.43434044 306.00999275 -481.43434044 306.00999275 -479.83705139 306.02018738 C-412.01844829 306.7329581 -412.01844829 306.7329581 -344.32928467 303.19921875 C-341.33875526 302.94344515 -338.34628498 302.72090687 -335.35295105 302.50082397 C-249.08948482 296.14032143 -162.29492971 279.50988656 -18 225 C-19.46128238 204.83654931 -21.48922191 184.74315085 -23.56971931 164.6364851 C-24.03670299 160.11694703 -24.50028604 155.59706006 -24.9642334 151.07720947 C-25.8414626 142.53571182 -26.72139022 133.99449468 -27.60245848 125.45339227 C-29.17836121 110.17548085 -30.74915531 94.8970435 -32.31960344 79.61857057 C-32.86839256 74.28054289 -33.41824771 68.9426264 -33.96895838 63.60479665 C-34.98688413 53.73729751 -35.99894321 43.86922553 -37 34 C-37.17715042 32.25527153 -37.17715042 32.25527153 -37.35787964 30.47529602 C-37.65639381 27.51551948 -37.94979387 24.55530476 -38.24023438 21.59472656 C-38.3209745 20.79478146 -38.40171463 19.99483635 -38.48490143 19.17065048 C-38.91008255 14.75132399 -39.07103862 10.43242663 -39 6 C-32.43221423 3.87765875 -25.75060995 2.902102 -18.9375 1.875 C-17.77927734 1.69324219 -16.62105469 1.51148438 -15.42773438 1.32421875 C-14.30560547 1.15277344 -13.18347656 0.98132812 -12.02734375 0.8046875 C-11.01406006 0.64983887 -10.00077637 0.49499023 -8.95678711 0.33544922 C-5.94358006 -0.00640088 -3.02970103 -0.02256302 0 0 Z " fill="#FFFFFF" transform="translate(927,1130)"/>
<path d="M0 0 C1.28777344 -0.03996094 2.57554687 -0.07992188 3.90234375 -0.12109375 C7.0625 0.4375 7.0625 0.4375 8.73746204 2.64298534 C10.15356995 5.62956719 10.43331014 7.42978988 10.42326355 10.70832825 C10.42944954 12.27104965 10.42944954 12.27104965 10.4357605 13.86534119 C10.42497467 14.99750565 10.41418884 16.1296701 10.40307617 17.29614258 C10.40351425 18.49656189 10.40395233 19.6969812 10.40440369 20.93377686 C10.40267435 24.21658813 10.38765063 27.49901353 10.36668181 30.78174806 C10.34790141 34.21570289 10.34616351 37.64966567 10.34260559 41.08366394 C10.3332891 47.58240028 10.30868079 54.08098483 10.27855712 60.5796544 C10.24500069 67.97984993 10.228524 75.3800528 10.21347082 82.7803055 C10.1821308 97.99945817 10.12937813 113.2184595 10.0625 128.4375 C9.32499512 128.23036377 8.58749023 128.02322754 7.82763672 127.80981445 C6.85068848 127.5387085 5.87374023 127.26760254 4.8671875 126.98828125 C3.42061768 126.5847644 3.42061768 126.5847644 1.94482422 126.1730957 C-8.11600343 123.60547977 -17.8765204 124.31615714 -27.6875 127.75 C-30.04086228 129.28245658 -30.04086228 129.28245658 -31.1875 131.625 C-30.32993336 141.27262475 -17.13163087 150.85394328 -10.06640625 156.890625 C-8.25466954 158.36057308 -6.43580924 159.82179179 -4.609375 161.2734375 C-1.02212969 164.17889642 2.37378363 167.27344434 5.7734375 170.39453125 C6.52882813 171.06871094 7.28421875 171.74289062 8.0625 172.4375 C8.84496094 173.17226562 9.62742187 173.90703125 10.43359375 174.6640625 C13.72142209 176.88200316 15.81220674 176.93385566 19.75 177 C29.41554838 177.48077339 36.7522103 180.12771037 45.375 184.3125 C46.05739746 184.64000244 46.73979492 184.96750488 47.44287109 185.30493164 C51.69568205 187.44914007 55.04699585 189.64690379 58.0625 193.4375 C58.875 196.75 58.875 196.75 59.0625 199.4375 C48.27596113 201.01670569 37.65530942 201.6308611 26.75 201.625 C25.57590576 201.62564453 24.40181152 201.62628906 23.19213867 201.62695312 C18.31012816 201.59581018 13.84591933 201.42904279 9.0625 200.4375 C0.5911417 199.81533171 -7.85811409 201.09155368 -16.25 202.125 C-17.72702793 202.3026803 -19.20407923 202.48016639 -20.68115234 202.6574707 C-36.53375861 204.57714208 -52.35506054 206.73945627 -68.17236328 208.9284668 C-72.0912486 209.45828627 -76.01275979 209.95323638 -79.9375 210.4375 C-79.9375 212.0875 -79.9375 213.7375 -79.9375 215.4375 C-79.12450439 215.40720703 -78.31150879 215.37691406 -77.47387695 215.34570312 C-58.14495826 214.6541021 -38.81475032 214.28882907 -19.47348022 214.20532227 C-17.1305318 214.19351319 -14.78760343 214.17648842 -12.44473267 214.15405273 C-9.10886084 214.12387917 -5.77349361 214.11411405 -2.4375 214.109375 C-0.9626136 214.09091522 -0.9626136 214.09091522 0.54206848 214.07208252 C11.59659636 214.10671129 21.01578549 217.09115162 30.8125 222 C38.67303116 225.7732049 45.48685456 227.57581938 54.16796875 228.12109375 C55.12316406 228.22550781 56.07835937 228.32992188 57.0625 228.4375 C59.24687332 232.80624665 57.5816689 238.84538203 56.125 243.3125 C52.69274274 246.84876505 48.70345358 247.97280189 44.0625 249.4375 C43.4015332 249.64938965 42.74056641 249.8612793 42.05957031 250.07958984 C39.7775834 250.79469431 37.48593279 251.46477137 35.1875 252.125 C34.13949219 252.44694336 34.13949219 252.44694336 33.0703125 252.77539062 C17.04480484 257.12954331 -1.08203414 255.59918709 -17.52172852 255.56787109 C-20.89538991 255.56246734 -24.2689205 255.56787683 -27.64257812 255.57421875 C-55.49816675 255.58394442 -55.49816675 255.58394442 -61.9375 253.4375 C-62.5975 256.0775 -63.2575 258.7175 -63.9375 261.4375 C-4.72263434 280.35298582 -4.72263434 280.35298582 56.3125 282.4375 C66.84784572 280.75184469 66.84784572 280.75184469 70.15234375 282.6171875 C70.76207031 283.17664062 71.37179687 283.73609375 72 284.3125 C72.62777344 284.84617187 73.25554687 285.37984375 73.90234375 285.9296875 C76.84729185 292.29553491 72.04301844 302.10778741 69.9375 308.45703125 C69.48259941 309.85111458 69.48259941 309.85111458 69.01850891 311.27336121 C68.03935495 314.26764392 67.0515228 317.25896382 66.0625 320.25 C65.38291633 322.31570905 64.70347382 324.38146455 64.02416992 326.44726562 C62.35259762 331.52175369 60.67156781 336.59303974 58.98529053 341.66265869 C58.13644728 344.21513972 57.28991739 346.76837601 56.44384766 349.32177734 C55.10189316 353.36528002 53.74159959 357.40225872 52.375 361.4375 C51.99021484 362.59096924 51.60542969 363.74443848 51.20898438 364.93286133 C47.37760808 376.09490347 47.37760808 376.09490347 44.0625 379.4375 C35.84260111 382.89250529 25.4697295 381.83039899 16.6875 381.8125 C15.37776215 381.81317978 15.37776215 381.81317978 14.04156494 381.81387329 C-15.98310916 381.76959108 -45.99369257 379.45643961 -75.9375 377.4375 C-77.11677063 377.35826294 -78.29604126 377.27902588 -79.51104736 377.1973877 C-86.38374857 376.73341102 -93.25500406 376.25242621 -100.125 375.75 C-100.96073547 375.68960541 -101.79647095 375.62921082 -102.65753174 375.56698608 C-104.9323162 375.40053774 -107.20644727 375.2273119 -109.48046875 375.05078125 C-110.71821045 374.95579346 -111.95595215 374.86080566 -113.23120117 374.76293945 C-115.9375 374.4375 -115.9375 374.4375 -116.9375 373.4375 C-117.92082217 367.7153062 -118.11849084 361.87963266 -118.27207947 356.0859375 C-118.29602408 355.29514832 -118.31996868 354.50435915 -118.34463888 353.68960667 C-118.42325973 351.0639942 -118.49666814 348.43826319 -118.57006836 345.8125 C-118.62576671 343.91665225 -118.68179059 342.02081404 -118.7381134 340.12498474 C-118.89021218 334.97471464 -119.03779205 329.82432371 -119.18460536 324.6739006 C-119.34110668 319.21228991 -119.50190561 313.75080571 -119.6622467 308.28930664 C-119.96731008 297.87691501 -120.26871526 287.46442092 -120.56873089 277.05188274 C-120.93556945 264.32487055 -121.30646159 251.59797725 -121.67773438 238.87109375 C-121.80979307 234.34415717 -121.94184495 229.81722039 -122.07388306 225.2902832 C-122.12251588 223.62319069 -122.12251588 223.62319069 -122.17213118 221.92241955 C-122.36695643 215.24121663 -122.56106312 208.55999327 -122.75459301 201.87875271 C-123.34376659 181.54100685 -123.93676418 161.20346984 -124.57470703 140.8671875 C-124.59903828 140.0895083 -124.62336953 139.31182911 -124.6484381 138.51058388 C-124.88912207 130.81804072 -125.13268044 123.12560855 -125.38230896 115.43334961 C-125.73423046 104.43170248 -126.08512515 93.44623155 -125.9375 82.4375 C-126.71066055 82.13286835 -127.48382111 81.82823669 -128.28041077 81.51437378 C-130.98572842 80.41795383 -133.53115372 79.16584046 -136.12109375 77.8203125 C-137.12108398 77.30138428 -138.12107422 76.78245605 -139.15136719 76.24780273 C-140.21516602 75.69165283 -141.27896484 75.13550293 -142.375 74.5625 C-143.47360352 73.98894775 -144.57220703 73.41539551 -145.70410156 72.82446289 C-153.22284621 68.88645832 -160.72101747 64.91124456 -168.1875 60.875 C-169.55152954 60.14337646 -169.55152954 60.14337646 -170.94311523 59.39697266 C-182.10837545 53.31684899 -182.10837545 53.31684899 -183.875 49.3125 C-183.895625 48.69375 -183.91625 48.075 -183.9375 47.4375 C-181.9375 45.4375 -181.9375 45.4375 -178.52734375 45.09765625 C-172.9024179 45.2410392 -167.79524226 47.11221903 -162.5 48.875 C-135.80806226 57.69084602 -115.62653024 44.26438793 -91.76391602 32.65185547 C-84.66727006 29.20334067 -77.5351585 25.86544075 -70.3125 22.6875 C-63.56202361 19.70639938 -56.97132197 16.49347392 -50.4375 13.0625 C-49.64134277 12.64516602 -48.84518555 12.22783203 -48.02490234 11.79785156 C-45.10508507 10.24103931 -42.340352 8.74139358 -39.6953125 6.74609375 C-30.05874745 -0.42779357 -11.59706631 0.32455224 0 0 Z " fill="#FFFFFF" transform="translate(918.9375,1739.5625)"/>
<path d="M0 0 C3.30595277 0.00546069 6.61177542 -0.00003257 9.91772461 -0.00634766 C12.01993845 -0.00568849 14.12215221 -0.00441069 16.22436523 -0.00244141 C17.21267838 -0.00446564 18.20099152 -0.00648987 19.21925354 -0.00857544 C20.12207565 -0.00542328 21.02489777 -0.00227112 21.95507812 0.00097656 C22.75128067 0.00177216 23.54748322 0.00256775 24.36781311 0.00338745 C26.18920898 0.13037109 26.18920898 0.13037109 27.18920898 1.13037109 C28.70237154 8.88221387 29.45214841 17.49099072 27.18920898 25.13037109 C23.12690466 30.46676177 16.67789655 33.00175951 10.7590332 35.81054688 C6.7449309 37.87213124 3.29044068 40.53827756 -0.24829102 43.31787109 C-1.55258111 44.31838937 -2.85725863 45.31840283 -4.16235352 46.31787109 C-4.77755859 46.79353516 -5.39276367 47.26919922 -6.02661133 47.75927734 C-8.69998683 49.81369398 -11.41354462 51.81168353 -14.12329102 53.81787109 C-26.70331974 63.26559118 -39.44566893 73.32814412 -50.37329102 84.69287109 C-51.81079102 86.13037109 -51.81079102 86.13037109 -54.81079102 88.56787109 C-57.8503529 91.16416354 -60.33389306 93.88713988 -62.91235352 96.92724609 C-64.1857726 98.40504108 -65.49418152 99.8533402 -66.83422852 101.27099609 C-86.78716797 122.44848418 -97.50166758 145.40627923 -100.81079102 174.13037109 C-100.93309082 175.15324219 -101.05539062 176.17611328 -101.18139648 177.22998047 C-104.64937029 207.0482416 -105.47367622 237.15774857 -106.81079102 267.13037109 C-121.19785179 269.15523845 -135.64886043 270.25913612 -150.12719727 271.40771484 C-152.79103436 271.62158153 -155.4548486 271.83571659 -158.11863708 272.05018616 C-163.6969079 272.49876132 -169.27537863 272.94477163 -174.85400391 273.38891602 C-182.57440011 274.00358274 -190.29441528 274.62292984 -198.01435971 275.24324107 C-227.27560286 277.5937606 -256.53922312 279.91168938 -285.81079102 282.13037109 C-285.2256915 278.44035717 -284.58862252 275.13989483 -283.16625977 271.68115234 C-282.65494507 270.42999634 -282.65494507 270.42999634 -282.13330078 269.15356445 C-281.57147095 267.81177124 -281.57147095 267.81177124 -280.99829102 266.44287109 C-280.40649048 265.01503296 -280.40649048 265.01503296 -279.80273438 263.55834961 C-268.46021724 236.4023984 -256.21130483 209.80085224 -241.81079102 184.13037109 C-241.29162109 183.20063477 -240.77245117 182.27089844 -240.23754883 181.31298828 C-234.46408529 170.99377231 -228.64594109 160.7930113 -221.81079102 151.13037109 C-221.35124023 150.47004883 -220.89168945 149.80972656 -220.41821289 149.12939453 C-212.82047661 138.22766182 -204.78254191 127.93523568 -195.81079102 118.13037109 C-195.10567383 117.35306641 -194.40055664 116.57576172 -193.67407227 115.77490234 C-183.67357997 105.27124063 -171.40969455 97.84296391 -159.05102539 90.47851562 C-155.58458962 88.3924587 -152.16889193 86.22791566 -148.74829102 84.06787109 C-136.4362744 76.35736105 -124.00375791 69.17802235 -111.06079102 62.56787109 C-99.24144644 56.50214749 -88.34778198 50.50398216 -79.29907227 40.56396484 C-77.81079102 39.13037109 -77.81079102 39.13037109 -75.81079102 39.13037109 C-75.56458008 38.55416016 -75.31836914 37.97794922 -75.06469727 37.38427734 C-73.60917002 34.76795579 -71.92470371 33.12145274 -69.74829102 31.06787109 C-66.42379795 27.82278471 -63.40029251 24.50787297 -60.49829102 20.88037109 C-56.95159654 16.47197972 -53.29447199 12.19880665 -49.49829102 8.00537109 C-48.99450928 7.43657227 -48.49072754 6.86777344 -47.97167969 6.28173828 C-43.08713613 0.9460251 -39.09038721 0.94600511 -32.12719727 0.57568359 C-31.3477626 0.533638 -30.56832794 0.49159241 -29.76527405 0.44827271 C-19.84830278 -0.03172159 -9.9263767 -0.01959798 0 0 Z " fill="#FFFFFF" transform="translate(821.810791015625,1129.86962890625)"/>
<path d="M0 0 C0.50244141 1.93017578 0.50244141 1.93017578 0.8515625 4.4453125 C0.98046875 5.35796875 1.109375 6.270625 1.2421875 7.2109375 C1.43167969 8.65339844 1.43167969 8.65339844 1.625 10.125 C1.7590625 11.0634375 1.893125 12.001875 2.03125 12.96875 C2.28369197 14.80797006 2.5132496 16.65049642 2.71826172 18.49560547 C2.95425643 20.59338171 3.27214651 22.68172587 3.609375 24.765625 C2.77400489 29.19951249 0.74783546 30.38755594 -2.84008789 32.93188477 C-3.67660889 33.49061279 -4.51312988 34.04934082 -5.375 34.625 C-6.66361938 35.52786743 -6.66361938 35.52786743 -7.97827148 36.44897461 C-9.76663696 37.70153459 -11.56126908 38.94519121 -13.36181641 40.18017578 C-17.31247529 42.90534803 -21.18310876 45.73733322 -25.0625 48.5625 C-26.55395436 49.63903726 -28.04614327 50.7145576 -29.5390625 51.7890625 C-30.27543945 52.31918945 -31.01181641 52.84931641 -31.77050781 53.39550781 C-33.25683594 54.46516927 -34.74316406 55.53483073 -36.22949219 56.60449219 C-44.68593036 62.6923875 -53.11888909 68.80868741 -61.5 75 C-69.87948458 81.19011119 -78.31107363 87.30474309 -86.76611328 93.39111328 C-90.51359769 96.09012118 -94.25661201 98.79531494 -98 101.5 C-102.48610379 104.74131453 -106.97304831 107.98141954 -111.46484375 111.21484375 C-119.17462973 116.76804624 -126.85757631 122.35437205 -134.5 128 C-144.35407821 135.27942622 -154.28574334 142.44830324 -164.22949219 149.60449219 C-164.96586914 150.13461914 -165.70224609 150.66474609 -166.4609375 151.2109375 C-167.20021484 151.74235352 -167.93949219 152.27376953 -168.70117188 152.82128906 C-170.18646583 153.89472203 -171.66700102 154.97477201 -173.14257812 156.06152344 C-177.12054083 158.98300351 -181.13836072 161.74419712 -185.3203125 164.3671875 C-186.1956665 164.94283447 -187.07102051 165.51848145 -187.97290039 166.11157227 C-189.64505244 167.20989255 -191.34415894 168.26868951 -193.07202148 169.27709961 C-195.66765243 171.02665761 -197.19976538 172.42513351 -199 175 C-199.64823275 178.47649039 -199.64823275 178.47649039 -199.70735931 182.35724545 C-199.73739378 183.06553114 -199.76742824 183.77381683 -199.79837283 184.50356572 C-199.88451766 186.66889824 -199.94553019 188.83366177 -200 191 C-200.05489452 192.80288079 -200.05489452 192.80288079 -200.11089802 194.64218342 C-200.20148463 198.24550026 -200.25717239 201.84789073 -200.30334473 205.45204163 C-200.32379361 206.82848399 -200.3445798 208.20492137 -200.36566782 209.58135408 C-200.42191187 213.31478371 -200.47344586 217.04826489 -200.52412152 220.78177369 C-200.57994496 224.83148028 -200.64026152 228.88112044 -200.69999695 232.93077087 C-200.8163077 240.86256771 -200.92856813 248.79441689 -201.03948629 256.72629077 C-201.16997615 266.04478014 -201.30476844 275.36320589 -201.43974739 284.68163114 C-201.68180652 301.40107362 -201.92034062 318.12056448 -202.15673828 334.84008789 C-202.38347062 350.87560036 -202.61211063 366.9110838 -202.84326172 382.9465332 C-202.85736857 383.92518925 -202.87147542 384.90384531 -202.88600975 385.9121576 C-202.94281077 389.85232816 -202.99961841 393.79249863 -203.05643657 397.73266894 C-203.30678094 415.09656725 -203.55556321 432.46048801 -203.80405593 449.82441291 C-203.84331599 452.56733426 -203.88260222 455.31025524 -203.92189217 458.05317616 C-204.09685115 470.2711932 -204.27075485 482.48922486 -204.44335938 494.70727539 C-204.45518151 495.54333315 -204.46700365 496.37939092 -204.47918403 497.24078377 C-204.75916088 517.0533977 -205.02729516 536.86611606 -205.27441406 556.6791687 C-205.2911795 558.02047805 -205.2911795 558.02047805 -205.30828363 559.38888457 C-205.41570908 567.98783344 -205.52231358 576.58679042 -205.62534031 585.18579322 C-205.93295898 610.79410166 -206.38337174 636.39703949 -207 662 C-217.88314817 667.49916172 -228.83853198 672.81612885 -239.875 678 C-241.44578635 678.73927833 -243.01650424 679.47870215 -244.5871582 680.21826172 C-247.810791 681.7358928 -251.03491267 683.25247928 -254.25927734 684.76855469 C-258.75533811 686.88352587 -263.247176 689.00734402 -267.73828125 691.1328125 C-282.34665009 698.04089761 -296.99572536 704.83998731 -311.72702026 711.48208618 C-323.65855268 716.86745719 -335.46115977 722.49710188 -347.2175293 728.25415039 C-347.83901352 728.55798645 -348.46049774 728.86182251 -349.10081482 729.17486572 C-350.7716552 729.9925586 -352.44105953 730.81318404 -354.11035156 731.6340332 C-359.51840068 734.19047413 -363.1000844 735.71947268 -369 734 C-373.2444398 732.35421237 -377.36625853 730.46683084 -381.5 728.5625 C-383.32297261 727.73741021 -385.14595174 726.91233379 -386.96958923 726.0887146 C-388.20288236 725.53123468 -389.43567991 724.97265715 -390.66798401 724.41299438 C-396.2335949 721.88532027 -401.82850753 719.4295689 -407.4375 717 C-408.36820313 716.59604004 -409.29890625 716.19208008 -410.2578125 715.77587891 C-418.63489037 712.14590707 -427.03136852 708.56140054 -435.42626953 704.97290039 C-447.95628716 699.60715881 -460.44791493 694.15357085 -472.93945312 688.69897461 C-473.75347092 688.34355591 -474.56748871 687.98813721 -475.40617371 687.62194824 C-476.92949736 686.95669588 -478.45270948 686.29118805 -479.9757843 685.62536621 C-484.30958677 683.7321484 -488.65104075 681.85814965 -493 680 C-493.14030929 671.25717198 -492.77152083 662.58169278 -492.20043945 653.86230469 C-492.06179518 651.73920691 -491.92990409 649.61576464 -491.79882812 647.4921875 C-491.38723803 640.96509506 -490.93113715 634.47601692 -490 628 C-481.32779342 629.98195608 -472.92823549 632.57646599 -464.51318359 635.43920898 C-460.58139032 636.77612338 -456.64397066 638.09630145 -452.70703125 639.41796875 C-451.43601059 639.84515701 -451.43601059 639.84515701 -450.13931274 640.28097534 C-443.44054389 642.52811168 -436.72901234 644.73469707 -430.01171875 646.92578125 C-428.98882751 647.25969376 -427.96593628 647.59360626 -426.91204834 647.93763733 C-421.67879316 649.6440791 -416.44281052 651.34153244 -411.20263672 653.02661133 C-401.54101979 656.14302925 -391.94165748 659.3386045 -382.43359375 662.8984375 C-380.02220354 663.780081 -377.60949471 664.65800739 -375.19628906 665.53466797 C-373.71981523 666.08395709 -372.25002299 666.65164662 -370.78857422 667.23974609 C-363.08531882 670.33954913 -357.03658339 671.88903048 -349.07421875 668.73828125 C-347.03753096 667.85581632 -345.03224723 666.92905682 -343.03286743 665.96508789 C-340.34421061 664.68866913 -337.60105393 663.57102849 -334.84666443 662.44538879 C-331.94691908 661.25577394 -329.0655363 660.02435593 -326.18225098 658.79550171 C-322.07540315 657.04578376 -317.96352059 655.30797995 -313.8515625 653.5703125 C-312.54838074 653.019412 -312.54838074 653.019412 -311.21887207 652.4573822 C-298.75062602 647.19545275 -286.23069958 642.05757417 -273.71435547 636.91137695 C-263.55243962 632.72913693 -253.41373823 628.49614715 -243.29589844 624.20825195 C-242.10664764 623.70466408 -240.91739685 623.2010762 -239.69210815 622.68222809 C-236.79457525 621.45520417 -233.89720907 620.22778832 -231 619 C-230.97573944 617.08744164 -230.97573944 617.08744164 -230.95098877 615.13624573 C-230.35225301 567.99687984 -229.73031898 520.85782343 -229.1027298 473.71883392 C-229.03148703 468.36713503 -228.96032148 463.01543512 -228.88921356 457.66373444 C-228.37903314 419.26845313 -227.86470291 380.87323091 -227.34241676 342.47811222 C-227.29731793 339.1619118 -227.25223113 335.84571121 -227.20715332 332.5295105 C-227.19042163 331.29878933 -227.19042163 331.29878933 -227.17335193 330.0432051 C-226.99269229 316.7490156 -226.81496501 303.45478844 -226.63827654 290.16054564 C-226.45793212 276.59670034 -226.27436432 263.0329015 -226.08767587 249.46914202 C-225.97476404 241.25883602 -225.86425722 233.04850551 -225.75704216 224.83812311 C-225.6756398 218.62502842 -225.58975499 212.4120031 -225.5021739 206.19899261 C-225.46722141 203.67022805 -225.43371164 201.14144307 -225.40177774 198.61263859 C-225.35800209 195.16329192 -225.3089679 191.71405762 -225.25865173 188.26480103 C-225.24736526 187.27674093 -225.23607878 186.28868084 -225.22445029 185.27067953 C-224.93824033 167.06989065 -224.93824033 167.06989065 -222.0234375 163.74609375 C-221.14945313 163.31425781 -220.27546875 162.88242188 -219.375 162.4375 C-214.84144494 160.0804434 -210.55906603 157.47913155 -206.33203125 154.6171875 C-205.69009323 154.1859407 -205.04815521 153.75469391 -204.38676453 153.31037903 C-202.25551562 151.87700616 -200.12748301 150.43895569 -198 149 C-197.26112549 148.50094147 -196.52225098 148.00188293 -195.76098633 147.48770142 C-191.71618139 144.75563028 -187.67317359 142.0209109 -183.63085938 139.28515625 C-165.92508553 127.30534356 -148.14635057 115.4460413 -130.2769165 103.71185303 C-111.70733643 91.5135721 -93.28436362 79.10378197 -74.88546753 66.65005493 C-68.73938495 62.49276197 -62.57505269 58.36382316 -56.39282227 54.26049805 C-54.21008794 52.81067513 -52.04037345 51.34608058 -49.87475586 49.87036133 C-44.81310875 46.43284741 -39.73758324 43.26539998 -34.359375 40.34375 C-22.49435977 34.16986903 -22.49435977 34.16986903 -14.86865234 23.87451172 C-13.84430712 16.82655991 -14.57460546 9.94627654 -16 3 C-14.56163367 2.51433253 -13.1227269 2.03026548 -11.68359375 1.546875 C-10.88236084 1.27713867 -10.08112793 1.00740234 -9.25561523 0.72949219 C-2.74939205 -1.37469602 -2.74939205 -1.37469602 0 0 Z " fill="#FFFFFF" transform="translate(1296,1661)"/>
<path d="M0 0 C41.25 0 82.5 0 125 0 C125 19.14 125 38.28 125 58 C108.665 58.495 108.665 58.495 92 59 C93.959375 61.083125 95.91875 63.16625 97.9375 65.3125 C102.74226394 70.45525752 107.28949189 75.72123986 111.6875 81.21875 C114.36930476 84.44416383 117.19523798 87.50257082 120.0625 90.5625 C134 105.45435093 134 105.45435093 134 108 C128.66610331 108.32462854 123.33809134 108.55864021 117.99658203 108.71411133 C116.18599225 108.77897068 114.37606958 108.86730958 112.56787109 108.98071289 C96.76303052 109.94612742 96.76303052 109.94612742 91.21484375 105.24169922 C88.57429966 102.58221274 86.30704853 99.71745577 84.16162109 96.64901733 C82.40676943 94.15786008 80.44614812 91.84276411 78.5 89.5 C77.43265625 88.1696875 77.43265625 88.1696875 76.34375 86.8125 C73.66791829 83.60150195 70.85641724 80.54970863 68 77.5 C63.56990083 72.77011968 59.42279048 67.8982057 55.3671875 62.83984375 C52.07937418 58.89555285 48.59232842 55.15108514 45.07226562 51.4140625 C38 43.88158304 38 43.88158304 38 41 C55.82 41 73.64 41 92 41 C92 33.08 92 25.16 92 17 C72.86 17 53.72 17 34 17 C34 47.03 34 77.06 34 108 C22.78 108 11.56 108 0 108 C0 72.36 0 36.72 0 0 Z " fill="#FFFFFF" transform="translate(1239,1512)"/>
<path d="M0 0 C40.59 0 81.18 0 123 0 C123 35.64 123 71.28 123 108 C111.78 108 100.56 108 89 108 C89 93.15 89 78.3 89 63 C70.52 63 52.04 63 33 63 C33 77.85 33 92.7 33 108 C22.11 108 11.22 108 0 108 C0 72.36 0 36.72 0 0 Z M34 17 C34 26.24 34 35.48 34 45 C52.15 45 70.3 45 89 45 C89 35.76 89 26.52 89 17 C70.85 17 52.7 17 34 17 Z " fill="#FFFFFF" transform="translate(1379,1512)"/>
<path d="M0 0 C10.56 0 21.12 0 32 0 C33 1 33 1 33.12025452 2.82862854 C33.11803391 3.62582809 33.11581329 4.42302765 33.11352539 5.24438477 C33.11340454 6.15788696 33.11328369 7.07138916 33.11315918 8.01257324 C33.10804321 8.97908813 33.10292725 9.94560303 33.09765625 10.94140625 C33.09664917 11.82501831 33.09564209 12.70863037 33.09460449 13.61901855 C33.08935531 16.93352549 33.07539417 20.24801399 33.0625 23.5625 C33.041875 30.966875 33.02125 38.37125 33 46 C50.82 46 68.64 46 87 46 C87 30.82 87 15.64 87 0 C98.22 0 109.44 0 121 0 C121 35.64 121 71.28 121 108 C109.78 108 98.56 108 87 108 C87 92.82 87 77.64 87 62 C69.18 62 51.36 62 33 62 C33 77.18 33 92.36 33 108 C22.11 108 11.22 108 0 108 C0 72.36 0 36.72 0 0 Z " fill="#FFFFFF" transform="translate(973,1512)"/>
<path d="M0 0 C1.08337646 -0.00087616 2.16675293 -0.00175232 3.28295898 -0.00265503 C6.86019244 0.00152167 10.43554571 0.04818195 14.01245117 0.09521484 C16.49394201 0.10640658 18.97544612 0.11494687 21.45695496 0.12094116 C27.98555153 0.1438407 34.5133461 0.20277575 41.04162598 0.26916504 C47.70427325 0.33380614 54.36715383 0.35795087 61.0300293 0.38818359 C74.10133484 0.45251611 87.17208471 0.55375619 100.24291992 0.68115234 C89.64188214 16.7804218 89.64188214 16.7804218 82.60409546 18.64544678 C78.29754814 19.10029954 74.01208479 18.94446679 69.69213867 18.79833984 C68.10417933 18.78754327 66.51617291 18.7823626 64.92817688 18.78250122 C60.77432349 18.77123676 56.62405744 18.69884031 52.47125244 18.60858154 C45.80973557 18.47112345 39.1477802 18.41398194 32.48502541 18.38290787 C30.16567882 18.36117751 27.84906039 18.30480243 25.53044128 18.24435425 C24.10738359 18.22725191 22.68431307 18.2111751 21.26123047 18.19628906 C20.02342331 18.16977264 18.78561615 18.14325623 17.51029968 18.11593628 C13.24960973 18.85298265 11.81619636 20.257937 9.24291992 23.68115234 C8.47957948 26.26172608 8.47957948 26.26172608 8.53588867 28.98193359 C8.50688477 29.95839844 8.47788086 30.93486328 8.44799805 31.94091797 C8.44219727 32.94832031 8.43639648 33.95572266 8.43041992 34.99365234 C8.4052832 36.02039062 8.38014648 37.04712891 8.35424805 38.10498047 C8.29550907 40.63075635 8.2591328 43.15480463 8.24291992 45.68115234 C9.34317001 45.67893173 10.4434201 45.67671112 11.57701111 45.67442322 C21.92214813 45.65419268 32.26728116 45.63918063 42.61243343 45.62934017 C47.93157205 45.62411112 53.25069476 45.61701308 58.56982422 45.60571289 C63.69855977 45.59488479 68.82727998 45.58887568 73.95602608 45.5862751 C75.91733606 45.58442071 77.87864516 45.58079984 79.83994865 45.57542229 C82.5770744 45.56821288 85.3141359 45.56716136 88.05126953 45.56762695 C89.2801741 45.56223404 89.2801741 45.56223404 90.53390503 45.55673218 C96.12886776 45.56710018 96.12886776 45.56710018 97.24291992 46.68115234 C97.37194981 48.0442952 97.43394599 49.41389078 97.4675293 50.78271484 C97.50130676 52.09042847 97.50130676 52.09042847 97.5357666 53.42456055 C97.6068003 57.44571497 97.66438473 61.46667775 97.70288086 65.48828125 C97.72939686 67.60277062 97.7702206 69.71713295 97.82592773 71.83105469 C97.90549545 74.88578386 97.93827105 77.93803534 97.96166992 80.99365234 C97.99466187 81.92838379 98.02765381 82.86311523 98.06164551 83.82617188 C98.04239805 90.22322383 96.52681099 93.72484591 92.22251892 98.4597168 C90.16986027 100.61698234 90.16986027 100.61698234 88.76441956 103.20141602 C86.48842872 106.71907551 84.40159043 109.15585387 80.19172287 110.18029785 C73.6544584 111.06412229 67.07022863 110.89061011 60.48901367 110.80615234 C58.34244967 110.80713675 56.19588517 110.81108919 54.04933167 110.81787109 C49.55926959 110.82210601 45.07082858 110.79494325 40.58105469 110.74462891 C34.8348352 110.6821191 29.09141667 110.6909328 23.34503078 110.72238159 C18.91551737 110.73993029 14.48665057 110.72316175 10.05720711 110.69573975 C7.93899774 110.68606317 5.82071973 110.6861676 3.70251274 110.6963501 C0.73853206 110.70474245 -2.22154466 110.66775142 -5.18505859 110.61865234 C-6.05434494 110.62967987 -6.92363129 110.6407074 -7.81925964 110.65206909 C-12.70073578 110.51640377 -15.19871817 109.75652851 -18.71690369 106.27026367 C-19.74994617 105.09081928 -20.7657829 103.89589337 -21.75708008 102.68115234 C-22.48797852 101.90126953 -23.21887695 101.12138672 -23.97192383 100.31787109 C-24.54040039 99.67462891 -25.10887695 99.03138672 -25.69458008 98.36865234 C-26.28110352 97.71251953 -26.86762695 97.05638672 -27.47192383 96.38037109 C-28.75708008 94.68115234 -28.75708008 94.68115234 -28.75708008 92.68115234 C-0.04708008 92.68115234 28.66291992 92.68115234 58.24291992 92.68115234 C59.23291992 90.70115234 59.23291992 90.70115234 60.24291992 88.68115234 C60.90291992 88.02115234 61.56291992 87.36115234 62.24291992 86.68115234 C62.613877 84.25868639 62.613877 84.25868639 62.65698242 81.45458984 C62.6956543 80.42333984 62.73432617 79.39208984 62.77416992 78.32958984 C62.80510742 77.24935547 62.83604492 76.16912109 62.86791992 75.05615234 C62.9065918 73.96818359 62.94526367 72.88021484 62.98510742 71.75927734 C63.07958239 69.06674069 63.16514423 66.37421478 63.24291992 63.68115234 C61.6113369 63.68448326 61.6113369 63.68448326 59.9467926 63.68788147 C49.71938481 63.70811213 39.49198106 63.72312411 29.26455784 63.73296452 C24.00595328 63.73819354 18.74736482 63.74529153 13.48876953 63.7565918 C8.41838865 63.76742 3.3480233 63.77342903 -1.72236824 63.77602959 C-3.66134956 63.77788396 -5.60032998 63.7815048 -7.53930473 63.7868824 C-10.24529767 63.79409195 -12.95122564 63.79514332 -15.65722656 63.79467773 C-16.87210503 63.80007065 -16.87210503 63.80007065 -18.11152649 63.80557251 C-23.64302792 63.79520451 -23.64302792 63.79520451 -24.75708008 62.68115234 C-24.89657647 61.29302789 -24.96914134 59.89807506 -25.01342773 58.50366211 C-25.05688828 57.1707589 -25.05688828 57.1707589 -25.10122681 55.81092834 C-25.19885063 51.70806473 -25.27290456 47.60537861 -25.3269043 43.50170898 C-25.36342178 41.3454002 -25.41784756 39.18931362 -25.4909668 37.03393555 C-26.16640707 16.81897316 -26.16640707 16.81897316 -20.53051758 10.58349609 C-18.95454527 9.26437206 -17.36286602 7.96381693 -15.75708008 6.68115234 C-15.10372177 5.66508408 -14.45036346 4.64901581 -13.77720642 3.60215759 C-10.09204708 -0.84332117 -5.38631247 -0.11391837 0 0 Z " fill="#FFFFFF" transform="translate(1915.757080078125,1511.31884765625)"/>
<path d="M0 0 C10.56 0 21.12 0 32 0 C33 1 33 1 33.12025452 2.79066467 C33.11803391 3.57009933 33.11581329 4.349534 33.11352539 5.15258789 C33.11344986 6.03342545 33.11337433 6.914263 33.11329651 7.8217926 C33.10813522 8.77907761 33.10297394 9.73636261 33.09765625 10.72265625 C33.0962413 11.69786728 33.09482635 12.67307831 33.09336853 13.67784119 C33.08775133 16.80609143 33.07519593 19.93427123 33.0625 23.0625 C33.05748722 25.17773334 33.05292393 27.29296781 33.04882812 29.40820312 C33.03777631 34.60549296 33.02102146 39.80274145 33 45 C35.4044619 44.9617352 37.80049709 44.89073336 40.203125 44.80078125 C40.87875488 44.79340942 41.55438477 44.7860376 42.25048828 44.77844238 C46.02175919 44.60963093 47.79883094 44.16694587 50.73242188 41.73242188 C52.96890992 38.91137258 54.96461073 35.96888614 57 33 C58.76413553 30.93319416 60.62723 28.96824077 62.5 27 C66.71976209 22.47569641 70.69328183 17.81133026 74.5390625 12.9609375 C75.35117188 11.98382812 76.16328125 11.00671875 77 10 C77.52424561 9.16194824 78.04849121 8.32389648 78.58862305 7.46044922 C81.17302444 3.82871732 83.52865357 0.63481606 88.02990723 -0.52142334 C93.86585634 -1.25221831 99.70562453 -0.91117535 105.5625 -0.625 C107.35208894 -0.57477161 109.14181362 -0.52915608 110.93164062 -0.48828125 C115.2911443 -0.37874663 119.6440624 -0.20662333 124 0 C120.15395032 5.32516656 116.09069642 10.24522567 111.5625 15 C110.40808225 16.22844173 109.25442847 17.45760185 108.1015625 18.6875 C107.55918945 19.265 107.01681641 19.8425 106.45800781 20.4375 C103.55224574 23.5515116 100.76806642 26.76384719 98 30 C97.05346423 31.10423423 96.10684119 32.20839365 95.16015625 33.3125 C93.58230849 35.15328132 92.00482158 36.99436571 90.4284668 38.83642578 C86.64923811 43.25102567 82.84403494 47.64162236 79 52 C80.40839495 56.29445018 82.45854776 58.87046479 85.5625 62.125 C88.94598758 65.73356545 92.20713946 69.39705267 95.3125 73.25 C98.91185937 77.7063497 102.61353602 82.05591548 106.375 86.375 C110.709418 91.35651751 115.03290783 96.34623276 119.3125 101.375 C119.78671387 101.92849121 120.26092773 102.48198242 120.74951172 103.05224609 C124 106.88330939 124 106.88330939 124 108 C118.91416971 108.27419459 113.83272701 108.47250483 108.74121094 108.60424805 C107.01421114 108.6592039 105.28771466 108.73400699 103.5625 108.82983398 C88.46942482 109.64650211 88.46942482 109.64650211 83.72924805 105.69360352 C81.19081779 102.91591514 79.08971091 100.12422386 77 97 C75.53552614 95.17560788 74.05822223 93.36136222 72.5625 91.5625 C71.83160156 90.65628906 71.10070313 89.75007813 70.34765625 88.81640625 C67.3823705 85.25905013 64.26933998 81.85952257 61.07739258 78.50488281 C58.74709824 76.02927395 56.76133675 73.65187789 54.828125 70.83203125 C52.54023248 67.31894245 52.54023248 67.31894245 48 63 C43.05 62.67 38.1 62.34 33 62 C33 77.18 33 92.36 33 108 C22.11 108 11.22 108 0 108 C0 72.36 0 36.72 0 0 Z " fill="#FFFFFF" transform="translate(1513,1512)"/>
<path d="M0 0 C39.93 0 79.86 0 121 0 C117.6797985 6.64040301 112.38340224 14.9684816 105.06526184 17.73010635 C99.95823792 18.79169765 94.82019321 18.49736796 89.640625 18.26953125 C87.99875232 18.24522756 86.35678413 18.2267495 84.71478271 18.21379089 C80.43126497 18.1645865 76.15365031 18.03732489 71.87243652 17.89263916 C67.48868675 17.75867595 63.10396471 17.70007576 58.71875 17.63476562 C50.1428463 17.49611212 41.57284155 17.26786167 33 17 C33 26.57 33 36.14 33 46 C59.73 46 86.46 46 114 46 C114 51.28 114 56.56 114 62 C112.28012794 63.71987206 110.09122971 63.11974788 107.79867554 63.12442017 C106.68197983 63.11902725 106.68197983 63.11902725 105.54272461 63.11352539 C104.76229294 63.11367142 103.98186127 63.11381744 103.17778015 63.1139679 C100.5859402 63.11326858 97.99417122 63.10547536 95.40234375 63.09765625 C93.6101536 63.09579213 91.81796294 63.0943682 90.02577209 63.09336853 C85.29929203 63.08954284 80.57284248 63.07971212 75.84637451 63.06866455 C71.0271445 63.05845153 66.20790958 63.05387115 61.38867188 63.04882812 C51.92576565 63.03808989 42.46289013 63.02049268 33 63 C33 72.24 33 81.48 33 91 C35.18407471 90.9371582 37.36814941 90.87431641 39.6184082 90.80957031 C46.8699769 90.60989542 54.12167377 90.47785955 61.3752718 90.37825394 C65.7696564 90.31586599 70.1612037 90.23140681 74.55395508 90.09472656 C78.80120932 89.96341492 83.04575318 89.89240871 87.29488182 89.86147308 C88.90784559 89.83945898 90.52067627 89.79646382 92.13247108 89.73123932 C105.3471808 89.21821412 105.3471808 89.21821412 110.4102478 93.57556152 C114.72398193 97.91492192 117.85001049 102.75001749 121 108 C81.07 108 41.14 108 0 108 C0 72.36 0 36.72 0 0 Z " fill="#FFFFFF" transform="translate(1762,1512)"/>
<path d="M0 0 C39.93 0 79.86 0 121 0 C117.6797985 6.64040301 112.38340224 14.9684816 105.06526184 17.73010635 C99.95823792 18.79169765 94.82019321 18.49736796 89.640625 18.26953125 C87.99875232 18.24522756 86.35678413 18.2267495 84.71478271 18.21379089 C80.43126497 18.1645865 76.15365031 18.03732489 71.87243652 17.89263916 C67.48868675 17.75867595 63.10396471 17.70007576 58.71875 17.63476562 C50.1428463 17.49611212 41.57284155 17.26786167 33 17 C33 26.57 33 36.14 33 46 C59.73 46 86.46 46 114 46 C114 51.28 114 56.56 114 62 C112.28012794 63.71987206 110.09122971 63.11974788 107.79867554 63.12442017 C106.68197983 63.11902725 106.68197983 63.11902725 105.54272461 63.11352539 C104.76229294 63.11367142 103.98186127 63.11381744 103.17778015 63.1139679 C100.5859402 63.11326858 97.99417122 63.10547536 95.40234375 63.09765625 C93.6101536 63.09579213 91.81796294 63.0943682 90.02577209 63.09336853 C85.29929203 63.08954284 80.57284248 63.07971212 75.84637451 63.06866455 C71.0271445 63.05845153 66.20790958 63.05387115 61.38867188 63.04882812 C51.92576565 63.03808989 42.46289013 63.02049268 33 63 C33 72.24 33 81.48 33 91 C35.18407471 90.9371582 37.36814941 90.87431641 39.6184082 90.80957031 C46.8699769 90.60989542 54.12167377 90.47785955 61.3752718 90.37825394 C65.7696564 90.31586599 70.1612037 90.23140681 74.55395508 90.09472656 C78.80120932 89.96341492 83.04575318 89.89240871 87.29488182 89.86147308 C88.90784559 89.83945898 90.52067627 89.79646382 92.13247108 89.73123932 C105.3471808 89.21821412 105.3471808 89.21821412 110.4102478 93.57556152 C114.72398193 97.91492192 117.85001049 102.75001749 121 108 C81.07 108 41.14 108 0 108 C0 72.36 0 36.72 0 0 Z " fill="#FFFFFF" transform="translate(1107,1512)"/>
<path d="M0 0 C6.21171248 0.43605514 11.56861474 2.02213563 17.41015625 4.09765625 C19.28204109 4.7396675 21.15480471 5.37912073 23.02832031 6.01635742 C24.01046509 6.35089935 24.99260986 6.68544128 26.0045166 7.03012085 C50.05755952 15.15045925 73.96213755 20.0157732 99.05163574 23.57800293 C104.45437396 24.35129263 109.85165883 25.16153984 115.25 25.96484375 C117.54651767 26.3049837 119.84306726 26.64490821 122.13964844 26.98461914 C126.60659475 27.6455626 131.07337927 28.30758221 135.54003906 28.97045898 C183.43749566 36.07133466 231.33898396 42.77860432 279.625 46.6171875 C280.72457031 46.70581055 281.82414062 46.79443359 282.95703125 46.88574219 C284.91201216 47.03945538 286.86773816 47.18410941 288.82421875 47.31738281 C290.8893107 47.47542556 292.9470755 47.72598677 295 48 C296.60863378 51.21726756 296.66358936 54.77549231 297.0625 58.3125 C297.19881836 59.45235352 297.19881836 59.45235352 297.33789062 60.61523438 C297.77886111 64.43145262 298.11524622 68.15077632 298 72 C295.25982416 72.91339195 293.79177518 73.10892015 290.98876953 73.0534668 C289.7763987 73.03285439 289.7763987 73.03285439 288.53953552 73.01182556 C287.22445763 72.98083519 287.22445763 72.98083519 285.8828125 72.94921875 C284.96730118 72.93125748 284.05178986 72.9132962 283.10853577 72.89479065 C280.11381264 72.83293987 277.11944682 72.76148607 274.125 72.6875 C272.58823105 72.65058044 272.58823105 72.65058044 271.02041626 72.61291504 C208.25463837 71.06864403 145.19902423 62.17143035 85 44 C84.22011719 43.76490723 83.44023438 43.52981445 82.63671875 43.28759766 C57.01737254 35.43228746 27.77076458 26.01999657 6 10 C5.35804688 9.53851562 4.71609375 9.07703125 4.0546875 8.6015625 C1.75526699 6.83689094 0.18860742 5.4526578 -0.9375 2.75 C-0.958125 2.1725 -0.97875 1.595 -1 1 C-0.67 0.67 -0.34 0.34 0 0 Z " fill="#FFFFFF" transform="translate(1000,1364)"/>
<path d="M0 0 C10.89 0 21.78 0 33 0 C33 30.36 33 60.72 33 92 C56.76 92 80.52 92 105 92 C96.11034977 106.81608372 96.11034977 106.81608372 89.87981415 108.61068344 C83.58665038 109.56286958 77.23909759 109.26342244 70.8984375 109.07421875 C69.08182487 109.05801985 67.26516072 109.04681375 65.44848633 109.04064941 C58.75653478 108.98327372 52.06568663 108.82969682 45.375 108.6875 C30.40125 108.460625 15.4275 108.23375 0 108 C0 72.36 0 36.72 0 0 Z " fill="#FFFFFF" transform="translate(1648,1512)"/>
<path d="M0 0 C17.16 0 34.32 0 52 0 C52 8.25 52 16.5 52 25 C48.04 25.33 44.08 25.66 40 26 C40.72445313 26.7734375 41.44890625 27.546875 42.1953125 28.34375 C47.47501045 34.01849015 52.49777795 39.67255279 57 46 C41.18049003 47.205296 41.18049003 47.205296 36.66796875 44.7109375 C34.88325387 42.58735271 33.48645176 40.34362761 32 38 C29.99929618 35.5500856 27.90175971 33.18697013 25.8125 30.8125 C16 19.43814879 16 19.43814879 16 18 C23.26 18 30.52 18 38 18 C38 14.7 38 11.4 38 8 C30.08 8 22.16 8 14 8 C14 20.54 14 33.08 14 46 C9.38 46 4.76 46 0 46 C0 30.82 0 15.64 0 0 Z " fill="#FFFFFF" transform="translate(1711,1649)"/>
<path d="M0 0 C17.16 0 34.32 0 52 0 C52 15.18 52 30.36 52 46 C47.38 46 42.76 46 38 46 C38 39.73 38 33.46 38 27 C30.41 27 22.82 27 15 27 C15 33.27 15 39.54 15 46 C10.05 46 5.1 46 0 46 C0 30.82 0 15.64 0 0 Z M15 8 C15 11.96 15 15.92 15 20 C22.59 20 30.18 20 38 20 C38 16.04 38 12.08 38 8 C30.41 8 22.82 8 15 8 Z " fill="#FFFFFF" transform="translate(1770,1649)"/>
<path d="M0 0 C13.5 7.875 13.5 7.875 18.421875 11.18359375 C19.46601562 11.88291016 20.51015625 12.58222656 21.5859375 13.30273438 C22.63007812 14.00720703 23.67421875 14.71167969 24.75 15.4375 C25.84054687 16.16904297 26.93109375 16.90058594 28.0546875 17.65429688 C30.70528315 19.43298606 33.35295606 21.21602945 36 23 C36.33 15.41 36.66 7.82 37 0 C41.62 0 46.24 0 51 0 C51 15.18 51 30.36 51 46 C45.375 43.75 45.375 43.75 42.58666992 41.84521484 C41.96640427 41.42493011 41.34613861 41.00464539 40.70707703 40.57162476 C40.0547963 40.12259796 39.40251556 39.67357117 38.73046875 39.2109375 C38.04946609 38.74765045 37.36846344 38.2843634 36.66682434 37.80703735 C34.50397073 36.33414766 32.34570429 34.85469161 30.1875 33.375 C28.71709525 32.37195829 27.24639524 31.36934928 25.77539062 30.3671875 C22.1795762 27.91724738 18.59004643 25.45847059 15 23 C14.67 30.59 14.34 38.18 14 46 C9.38 46 4.76 46 0 46 C0 30.82 0 15.64 0 0 Z " fill="#FFFFFF" transform="translate(1903,1649)"/>
<path d="M0 0 C17.82 0 35.64 0 54 0 C51.27715169 5.44569662 51.27715169 5.44569662 49 7 C46.34165372 7.26154123 43.92314896 7.34939122 41.26953125 7.29296875 C40.51911057 7.28872391 39.76868988 7.28447906 38.99552917 7.28010559 C36.60081974 7.2633245 34.20695466 7.2256749 31.8125 7.1875 C30.1881632 7.17245235 28.5638132 7.15876409 26.93945312 7.14648438 C22.95904914 7.1159754 18.98046861 7.05725767 15 7 C15 17.56 15 28.12 15 39 C22.59 39 30.18 39 38 39 C38 33.06 38 27.12 38 21 C42.62 21 47.24 21 52 21 C52 29.25 52 37.5 52 46 C34.84 46 17.68 46 0 46 C0 30.82 0 15.64 0 0 Z " fill="#FFFFFF" transform="translate(1960,1649)"/>
<path d="M0 0 C16.83 0 33.66 0 51 0 C47.94023286 6.11953428 47.94023286 6.11953428 46 8 C43.42202563 8.35711867 41.27685887 8.46813593 38.70703125 8.390625 C37.64798836 8.38213531 37.64798836 8.38213531 36.56755066 8.37347412 C34.31517374 8.35110411 32.06439497 8.30091199 29.8125 8.25 C28.28452821 8.22993556 26.75653144 8.21168468 25.22851562 8.1953125 C21.484568 8.15463952 17.74406975 8.0763663 14 8 C14 18.23 14 28.46 14 39 C26.21 39 38.42 39 51 39 C48.43060965 44.13878071 48.43060965 44.13878071 46 46 C43.89289856 46.36076355 43.89289856 46.36076355 41.43676758 46.34057617 C40.50320435 46.34021362 39.56964111 46.33985107 38.60778809 46.33947754 C37.62991333 46.32412964 36.65203857 46.30878174 35.64453125 46.29296875 C34.74327515 46.28994751 33.84201904 46.28692627 32.91345215 46.28381348 C29.54635163 46.26811571 26.17941434 46.22623168 22.8125 46.1875 C15.284375 46.125625 7.75625 46.06375 0 46 C0 30.82 0 15.64 0 0 Z " fill="#FFFFFF" transform="translate(1827,1649)"/>
<path d="M0 0 C4.62 0 9.24 0 14 0 C14 15.18 14 30.36 14 46 C9.38 46 4.76 46 0 46 C0 30.82 0 15.64 0 0 Z " fill="#FFFFFF" transform="translate(1884,1649)"/>
</svg>
